<svg xmlns="http://www.w3.org/2000/svg" viewBox="0 0 100 100">
  <defs>
    <linearGradient id="grad1" x1="0%" y1="0%" x2="100%" y2="100%">
      <stop offset="0%" style="stop-color:#667eea;stop-opacity:1" />
      <stop offset="100%" style="stop-color:#764ba2;stop-opacity:1" />
    </linearGradient>
  </defs>
  
  <!-- Background circle -->
  <circle cx="50" cy="50" r="45" fill="url(#grad1)"/>
  
  <!-- DNA helix representation -->
  <path d="M25 25 Q35 35 45 25 Q55 15 65 25 Q75 35 85 25" stroke="white" stroke-width="3" fill="none" opacity="0.8"/>
  <path d="M25 45 Q35 35 45 45 Q55 55 65 45 Q75 35 85 45" stroke="white" stroke-width="3" fill="none" opacity="0.6"/>
  <path d="M25 65 Q35 75 45 65 Q55 55 65 65 Q75 75 85 65" stroke="white" stroke-width="3" fill="none" opacity="0.4"/>
  
  <!-- Neural network nodes -->
  <circle cx="30" cy="30" r="3" fill="white"/>
  <circle cx="50" cy="20" r="3" fill="white"/>
  <circle cx="70" cy="30" r="3" fill="white"/>
  <circle cx="30" cy="50" r="3" fill="white"/>
  <circle cx="70" cy="50" r="3" fill="white"/>
  <circle cx="30" cy="70" r="3" fill="white"/>
  <circle cx="50" cy="80" r="3" fill="white"/>
  <circle cx="70" cy="70" r="3" fill="white"/>
  
  <!-- Connections -->
  <line x1="30" y1="30" x2="50" y2="20" stroke="white" stroke-width="1" opacity="0.6"/>
  <line x1="50" y1="20" x2="70" y2="30" stroke="white" stroke-width="1" opacity="0.6"/>
  <line x1="30" y1="50" x2="50" y2="20" stroke="white" stroke-width="1" opacity="0.4"/>
  <line x1="70" y1="50" x2="50" y2="20" stroke="white" stroke-width="1" opacity="0.4"/>
  <line x1="30" y1="70" x2="50" y2="80" stroke="white" stroke-width="1" opacity="0.6"/>
  <line x1="50" y1="80" x2="70" y2="70" stroke="white" stroke-width="1" opacity="0.6"/>
</svg>
